<svg xmlns="http://www.w3.org/2000/svg" xmlns:xlink="http://www.w3.org/1999/xlink" width="794" zoomAndPan="magnify" viewBox="0 0 595.5 419.249996" height="559" preserveAspectRatio="xMidYMid meet" version="1.0"><defs><g/><clipPath id="3f7d238182"><path d="M 0.25 0.414062 L 566.835938 0.414062 L 566.835938 297.480469 L 0.25 297.480469 Z M 0.25 0.414062 " clip-rule="nonzero"/></clipPath><clipPath id="368eea1ee7"><path d="M 0.25 0.414062 L 566.835938 0.414062 L 566.835938 212 L 0.25 212 Z M 0.25 0.414062 " clip-rule="nonzero"/></clipPath><clipPath id="3f9ccdc120"><rect x="0" width="567" y="0" height="212"/></clipPath><clipPath id="a5307932fd"><rect x="0" width="567" y="0" height="298"/></clipPath><clipPath id="863c933eea"><rect x="0" width="567" y="0" height="298"/></clipPath></defs><g transform="matrix(1, 0, 0, 1, 18, 59)"><g clip-path="url(#863c933eea)"><g clip-path="url(#3f7d238182)"><g><g clip-path="url(#a5307932fd)"><g clip-path="url(#368eea1ee7)"><g><g clip-path="url(#3f9ccdc120)"><g fill="#003378" fill-opacity="1"><g transform="translate(1.97459, 151.829262)"><g><path d="M 90.765625 -139.4375 L 90.765625 -111.546875 L 41.921875 -111.546875 L 41.921875 -83.828125 L 87.046875 -83.828125 L 87.046875 -55.9375 L 41.921875 -55.9375 L 41.921875 0 L 10.140625 0 L 10.140625 -139.4375 Z M 90.765625 -139.4375 "/></g></g></g><g fill="#003378" fill-opacity="1"><g transform="translate(91.554342, 151.829262)"><g><path d="M 89.921875 -139.4375 L 89.921875 -111.546875 L 41.921875 -111.546875 L 41.921875 -83.828125 L 87.890625 -83.828125 L 87.890625 -55.9375 L 41.921875 -55.9375 L 41.921875 -27.890625 L 89.921875 -27.890625 L 89.921875 0 L 10.140625 0 L 10.140625 -139.4375 Z M 89.921875 -139.4375 "/></g></g></g><g fill="#003378" fill-opacity="1"><g transform="translate(183.331327, 151.829262)"><g><path d="M 10.140625 -139.4375 L 60 -139.4375 C 73.40625 -139.4375 84.332031 -135.859375 92.78125 -128.703125 C 101.238281 -121.546875 105.46875 -111.320312 105.46875 -98.03125 C 105.46875 -87.78125 102.898438 -79.1875 97.765625 -72.25 C 92.640625 -65.320312 85.6875 -60.453125 76.90625 -57.640625 L 124.90625 0 L 84.515625 0 L 41.921875 -55.09375 L 41.921875 0 L 10.140625 0 Z M 41.921875 -77.578125 L 45.640625 -77.578125 C 48.566406 -77.578125 51.039062 -77.632812 53.0625 -77.75 C 55.09375 -77.863281 57.40625 -78.253906 60 -78.921875 C 62.59375 -79.597656 64.675781 -80.554688 66.25 -81.796875 C 67.832031 -83.035156 69.1875 -84.835938 70.3125 -87.203125 C 71.4375 -89.578125 72 -92.453125 72 -95.828125 C 72 -99.210938 71.4375 -102.085938 70.3125 -104.453125 C 69.1875 -106.816406 67.832031 -108.617188 66.25 -109.859375 C 64.675781 -111.097656 62.59375 -112.054688 60 -112.734375 C 57.40625 -113.410156 55.09375 -113.800781 53.0625 -113.90625 C 51.039062 -114.019531 48.566406 -114.078125 45.640625 -114.078125 L 41.921875 -114.078125 Z M 41.921875 -77.578125 "/></g></g></g><g fill="#003378" fill-opacity="1"><g transform="translate(298.094841, 151.829262)"><g><path d="M 136.234375 -78.078125 L 136.234375 -47.828125 C 132.617188 -31.265625 124.726562 -18.726562 112.5625 -10.21875 C 100.394531 -1.71875 86.816406 2.53125 71.828125 2.53125 C 53.015625 2.53125 36.988281 -4.507812 23.75 -18.59375 C 10.507812 -32.675781 3.890625 -49.691406 3.890625 -69.640625 C 3.890625 -89.921875 10.367188 -107.046875 23.328125 -121.015625 C 36.285156 -134.984375 52.453125 -141.96875 71.828125 -141.96875 C 94.472656 -141.96875 112.390625 -134.023438 125.578125 -118.140625 L 104.796875 -95.328125 C 97.359375 -107.265625 86.988281 -113.234375 73.6875 -113.234375 C 63.882812 -113.234375 55.519531 -108.976562 48.59375 -100.46875 C 41.664062 -91.96875 38.203125 -81.691406 38.203125 -69.640625 C 38.203125 -57.804688 41.664062 -47.691406 48.59375 -39.296875 C 55.519531 -30.898438 63.882812 -26.703125 73.6875 -26.703125 C 81.800781 -26.703125 88.867188 -29.148438 94.890625 -34.046875 C 100.921875 -38.953125 103.9375 -45.460938 103.9375 -53.578125 L 71.828125 -53.578125 L 71.828125 -78.078125 Z M 136.234375 -78.078125 "/></g></g></g><g fill="#003378" fill-opacity="1"><g transform="translate(431.957396, 151.829262)"><g><path d="M -5.078125 -139.4375 L 33.125 -139.4375 L 62.203125 -94.8125 L 91.265625 -139.4375 L 129.46875 -139.4375 L 78.078125 -62.53125 L 78.078125 0 L 46.3125 0 L 46.3125 -62.53125 Z M -5.078125 -139.4375 "/></g></g></g></g></g></g><g fill="#003378" fill-opacity="1"><g transform="translate(4.685928, 255.589825)"><g><path d="M 29.078125 -38.8125 L 29.078125 0 L 7.03125 0 L 7.03125 -96.734375 L 29.078125 -96.734375 L 29.078125 -58.15625 L 60.265625 -58.15625 L 60.265625 -96.734375 L 82.3125 -96.734375 L 82.3125 0 L 60.265625 0 L 60.265625 -38.8125 Z M 29.078125 -38.8125 "/></g></g></g><g fill="#003378" fill-opacity="1"><g transform="translate(90.976259, 255.589825)"><g><path d="M 2.703125 -48.421875 C 2.703125 -62.410156 7.46875 -74.25 17 -83.9375 C 26.539062 -93.632812 38.03125 -98.484375 51.46875 -98.484375 C 64.988281 -98.484375 76.476562 -93.65625 85.9375 -84 C 95.394531 -74.351562 100.125 -62.492188 100.125 -48.421875 C 100.125 -34.273438 95.472656 -22.375 86.171875 -12.71875 C 76.867188 -3.0625 65.300781 1.765625 51.46875 1.765625 C 37.320312 1.765625 25.65625 -3.019531 16.46875 -12.59375 C 7.289062 -22.175781 2.703125 -34.117188 2.703125 -48.421875 Z M 26.5 -48.421875 C 26.5 -43.335938 27.28125 -38.703125 28.84375 -34.515625 C 30.40625 -30.335938 33.140625 -26.800781 37.046875 -23.90625 C 40.953125 -21.019531 45.757812 -19.578125 51.46875 -19.578125 C 59.675781 -19.578125 65.867188 -22.390625 70.046875 -28.015625 C 74.234375 -33.648438 76.328125 -40.453125 76.328125 -48.421875 C 76.328125 -56.316406 74.195312 -63.097656 69.9375 -68.765625 C 65.675781 -74.429688 59.519531 -77.265625 51.46875 -77.265625 C 43.5 -77.265625 37.34375 -74.429688 33 -68.765625 C 28.664062 -63.097656 26.5 -56.316406 26.5 -48.421875 Z M 26.5 -48.421875 "/></g></g></g><g fill="#003378" fill-opacity="1"><g transform="translate(190.749528, 255.589825)"><g><path d="M 29.078125 -96.734375 L 29.078125 -19.34375 L 62.375 -19.34375 L 62.375 0 L 7.03125 0 L 7.03125 -96.734375 Z M 29.078125 -96.734375 "/></g></g></g><g fill="#003378" fill-opacity="1"><g transform="translate(253.942953, 255.589825)"><g><path d="M 7.03125 -96.734375 L 35.0625 -96.734375 C 48.5 -96.734375 59.984375 -92.140625 69.515625 -82.953125 C 79.054688 -73.765625 83.828125 -62.253906 83.828125 -48.421875 C 83.828125 -34.503906 79.078125 -22.953125 69.578125 -13.765625 C 60.085938 -4.585938 48.582031 0 35.0625 0 L 7.03125 0 Z M 29.078125 -19.703125 L 32.484375 -19.703125 C 40.535156 -19.703125 47.117188 -22.414062 52.234375 -27.84375 C 57.359375 -33.28125 59.957031 -40.101562 60.03125 -48.3125 C 60.03125 -56.519531 57.46875 -63.359375 52.34375 -68.828125 C 47.226562 -74.296875 40.609375 -77.03125 32.484375 -77.03125 L 29.078125 -77.03125 Z M 29.078125 -19.703125 "/></g></g></g><g fill="#003378" fill-opacity="1"><g transform="translate(337.41945, 255.589825)"><g><path d="M 29.078125 -96.734375 L 29.078125 0 L 7.03125 0 L 7.03125 -96.734375 Z M 29.078125 -96.734375 "/></g></g></g><g fill="#003378" fill-opacity="1"><g transform="translate(370.481425, 255.589825)"><g><path d="M 29.078125 -60.03125 L 29.078125 0 L 7.03125 0 L 7.03125 -96.734375 L 29.078125 -96.734375 L 67.53125 -36.703125 L 67.765625 -36.703125 L 67.765625 -96.734375 L 89.8125 -96.734375 L 89.8125 0 L 67.765625 0 L 29.3125 -60.03125 Z M 29.078125 -60.03125 "/></g></g></g><g fill="#003378" fill-opacity="1"><g transform="translate(464.275315, 255.589825)"><g><path d="M 94.5 -54.171875 L 94.5 -33.1875 C 92 -21.695312 86.523438 -13 78.078125 -7.09375 C 69.640625 -1.1875 60.222656 1.765625 49.828125 1.765625 C 36.773438 1.765625 25.65625 -3.117188 16.46875 -12.890625 C 7.289062 -22.660156 2.703125 -34.46875 2.703125 -48.3125 C 2.703125 -62.375 7.195312 -74.25 16.1875 -83.9375 C 25.175781 -93.632812 36.390625 -98.484375 49.828125 -98.484375 C 65.546875 -98.484375 77.972656 -92.972656 87.109375 -81.953125 L 72.6875 -66.125 C 67.53125 -74.414062 60.34375 -78.5625 51.125 -78.5625 C 44.320312 -78.5625 38.515625 -75.609375 33.703125 -69.703125 C 28.898438 -63.804688 26.5 -56.675781 26.5 -48.3125 C 26.5 -40.101562 28.898438 -33.085938 33.703125 -27.265625 C 38.515625 -21.441406 44.320312 -18.53125 51.125 -18.53125 C 56.75 -18.53125 61.648438 -20.226562 65.828125 -23.625 C 70.015625 -27.019531 72.109375 -31.535156 72.109375 -37.171875 L 49.828125 -37.171875 L 49.828125 -54.171875 Z M 94.5 -54.171875 "/></g></g></g></g></g></g></g></g></svg>